<svg xmlns="http://www.w3.org/2000/svg" width="120" height="8" viewBox="0 0 120 8">
  <rect x="0" y="0" width="4" height="4" fill="currentColor"/>
  <rect x="8" y="0" width="4" height="4" fill="currentColor"/>
  <rect x="16" y="0" width="4" height="4" fill="currentColor"/>
  <rect x="24" y="0" width="4" height="4" fill="currentColor"/>
  <rect x="32" y="0" width="4" height="4" fill="currentColor"/>
  <rect x="40" y="0" width="4" height="4" fill="currentColor"/>
  <rect x="48" y="0" width="4" height="4" fill="currentColor"/>
  <rect x="56" y="0" width="4" height="4" fill="currentColor"/>
  <rect x="64" y="0" width="4" height="4" fill="currentColor"/>
  <rect x="72" y="0" width="4" height="4" fill="currentColor"/>
  <rect x="80" y="0" width="4" height="4" fill="currentColor"/>
  <rect x="88" y="0" width="4" height="4" fill="currentColor"/>
  <rect x="96" y="0" width="4" height="4" fill="currentColor"/>
  <rect x="104" y="0" width="4" height="4" fill="currentColor"/>
  <rect x="112" y="0" width="4" height="4" fill="currentColor"/>
  <rect x="4" y="4" width="4" height="4" fill="currentColor" opacity="0.6"/>
  <rect x="12" y="4" width="4" height="4" fill="currentColor" opacity="0.6"/>
  <rect x="20" y="4" width="4" height="4" fill="currentColor" opacity="0.6"/>
  <rect x="28" y="4" width="4" height="4" fill="currentColor" opacity="0.6"/>
  <rect x="36" y="4" width="4" height="4" fill="currentColor" opacity="0.6"/>
  <rect x="44" y="4" width="4" height="4" fill="currentColor" opacity="0.6"/>
  <rect x="52" y="4" width="4" height="4" fill="currentColor" opacity="0.6"/>
  <rect x="60" y="4" width="4" height="4" fill="currentColor" opacity="0.6"/>
  <rect x="68" y="4" width="4" height="4" fill="currentColor" opacity="0.6"/>
  <rect x="76" y="4" width="4" height="4" fill="currentColor" opacity="0.6"/>
  <rect x="84" y="4" width="4" height="4" fill="currentColor" opacity="0.6"/>
  <rect x="92" y="4" width="4" height="4" fill="currentColor" opacity="0.6"/>
  <rect x="100" y="4" width="4" height="4" fill="currentColor" opacity="0.6"/>
  <rect x="108" y="4" width="4" height="4" fill="currentColor" opacity="0.6"/>
  <rect x="116" y="4" width="4" height="4" fill="currentColor" opacity="0.6"/>
</svg>
